{
	"asset":{
		"generator":"Khronos glTF Blender I/O v5.1.20",
		"version":"2.0"
	},
	"scene":0,
	"scenes":[
		{
			"name":"Scene",
			"nodes":[
				56
			]
		}
	],
	"nodes":[
		{
			"name":"B-indexFinger03.R",
			"rotation":[
				-0.006238201633095741,
				-0.004023272078484297,
				0.010918325744569302,
				0.9999128580093384
			],
			"scale":[
				1,
				0.9999998807907104,
				1
			],
			"translation":[
				6.628036499023438e-05,
				3.8299202919006348,
				-3.159046173095703e-06
			]
		},
		{
			"children":[
				0
			],
			"name":"B-indexFinger02.R",
			"rotation":[
				0.054668985307216644,
				-0.02874969318509102,
				0.004138207994401455,
				0.9980819821357727
			],
			"scale":[
				1.0000001192092896,
				1.000000238418579,
				1
			],
			"translation":[
				1.33514404296875e-05,
				5.168013572692871,
				-1.7978250980377197e-05
			]
		},
		{
			"children":[
				1
			],
			"name":"B-indexFinger01.R",
			"rotation":[
				0.019056228920817375,
				0.014959735795855522,
				-0.03131590038537979,
				0.9992159008979797
			],
			"translation":[
				3.9847261905670166,
				14.592137336730957,
				-0.24734054505825043
			]
		},
		{
			"name":"B-middleFinger03.R",
			"rotation":[
				0.004982246086001396,
				0.021226990967988968,
				0.00632405374199152,
				0.9997422695159912
			],
			"scale":[
				0.9999998807907104,
				1,
				1
			],
			"translation":[
				2.956390380859375e-05,
				3.9666011333465576,
				9.553134441375732e-05
			]
		},
		{
			"children":[
				3
			],
			"name":"B-middleFinger02.R",
			"rotation":[
				0.08092532306909561,
				-0.04562155902385712,
				-0.007766239810734987,
				0.9956452250480652
			],
			"scale":[
				1.0000003576278687,
				1.000000238418579,
				1.0000001192092896
			],
			"translation":[
				6.0439109802246094e-05,
				5.38433313369751,
				2.737622708082199e-06
			]
		},
		{
			"children":[
				4
			],
			"name":"B-middleFinger01.R",
			"rotation":[
				-0.0046989875845611095,
				0.003257923759520054,
				0.0018008043989539146,
				0.9999820590019226
			],
			"scale":[
				1,
				1.0000001192092896,
				1
			],
			"translation":[
				1.0262912511825562,
				14.571611404418945,
				-0.987869381904602
			]
		},
		{
			"name":"B-ringFinger03.R",
			"rotation":[
				0.020911306142807007,
				0.04065299406647682,
				0.015794679522514343,
				0.9988296031951904
			],
			"scale":[
				0.9999999403953552,
				1,
				0.9999999403953552
			],
			"translation":[
				-4.544854164123535e-05,
				3.834744453430176,
				-2.9083341360092163e-05
			]
		},
		{
			"children":[
				6
			],
			"name":"B-ringFinger02.R",
			"rotation":[
				0.06927116960287094,
				0.00211105914786458,
				-0.02285962738096714,
				0.9973337054252625
			],
			"translation":[
				5.459785461425781e-05,
				4.99488639831543,
				5.793105810880661e-05
			]
		},
		{
			"children":[
				7
			],
			"name":"B-ringFinger01.R",
			"rotation":[
				-0.007115340791642666,
				-0.001771463081240654,
				0.036399614065885544,
				0.9993104338645935
			],
			"scale":[
				1,
				0.9999999403953552,
				0.9999998807907104
			],
			"translation":[
				-1.770746111869812,
				14.18686294555664,
				-0.6308668255805969
			]
		},
		{
			"name":"B-pinky03.R",
			"rotation":[
				0.022110261023044586,
				0.021832505241036415,
				-0.009211519733071327,
				0.9994747042655945
			],
			"scale":[
				1,
				1,
				0.9999998211860657
			],
			"translation":[
				-4.887580871582031e-05,
				3.5590336322784424,
				8.95373523235321e-05
			]
		},
		{
			"children":[
				9
			],
			"name":"B-pinky02.R",
			"rotation":[
				0.06916174292564392,
				-0.011168576776981354,
				-0.016391772776842117,
				0.9974082708358765
			],
			"scale":[
				0.9999998807907104,
				1,
				1.0000001192092896
			],
			"translation":[
				8.344650268554688e-07,
				4.236079692840576,
				-7.763504981994629e-06
			]
		},
		{
			"children":[
				10
			],
			"name":"B-pinky01.R",
			"rotation":[
				-0.009442531503736973,
				0.016678106039762497,
				0.05264657735824585,
				0.9984292984008789
			],
			"scale":[
				1,
				0.9999998211860657,
				1
			],
			"translation":[
				-4.59577751159668,
				13.234649658203125,
				-0.26845991611480713
			]
		},
		{
			"name":"B-thumb03.R",
			"rotation":[
				-0.060353849083185196,
				-0.014397718943655491,
				-0.007427894975990057,
				0.9980455636978149
			],
			"scale":[
				1.0000001192092896,
				1,
				1
			],
			"translation":[
				-3.719329833984375e-05,
				3.8913774490356445,
				2.1457672119140625e-05
			]
		},
		{
			"children":[
				12
			],
			"name":"B-thumb02.R",
			"rotation":[
				0.038174066692590714,
				-0.013299690559506416,
				0.008043733425438404,
				0.9991502165794373
			],
			"scale":[
				0.9999999403953552,
				0.9999998807907104,
				0.9999998211860657
			],
			"translation":[
				6.413459777832031e-05,
				5.214535713195801,
				2.09808349609375e-05
			]
		},
		{
			"children":[
				13
			],
			"name":"B-thumb01.R",
			"rotation":[
				-0.04915488138794899,
				-0.6880836486816406,
				-0.2983219623565674,
				0.6596428751945496
			],
			"scale":[
				1.0000001192092896,
				1.0000001192092896,
				1
			],
			"translation":[
				4.399986743927002,
				5.360060691833496,
				1.4425241947174072
			]
		},
		{
			"name":"B-handProp.R",
			"rotation":[
				-0.013668842613697052,
				-0.012544042430818081,
				-0.6760832667350769,
				0.736591637134552
			],
			"scale":[
				1,
				1.0000001192092896,
				0.9999998807907104
			],
			"translation":[
				-0.36493241786956787,
				11.645610809326172,
				2.523693561553955
			]
		},
		{
			"children":[
				2,
				5,
				8,
				11,
				14,
				15
			],
			"name":"B-hand.R",
			"rotation":[
				0.013654408045113087,
				-0.7053695321083069,
				-0.033099181950092316,
				0.7079349756240845
			],
			"scale":[
				0.9999999403953552,
				0.9999998807907104,
				0.9999999403953552
			],
			"translation":[
				5.601905286312103e-06,
				19.59645652770996,
				-2.384185791015625e-07
			]
		},
		{
			"children":[
				16
			],
			"name":"B-forearm.R",
			"rotation":[
				0.0010379917221143842,
				0.0004230676859151572,
				-0.0032019163481891155,
				0.9999942183494568
			],
			"scale":[
				1.0000001192092896,
				1.0000001192092896,
				1
			],
			"translation":[
				-2.097431570291519e-05,
				23.413768768310547,
				-1.0907649993896484e-05
			]
		},
		{
			"children":[
				17
			],
			"name":"B-upperArm.R",
			"rotation":[
				0.023701218888163567,
				-0.7095231413841248,
				0.07322937250137329,
				0.700465977191925
			],
			"scale":[
				1,
				0.9999999403953552,
				1
			],
			"translation":[
				5.766586400568485e-05,
				20.15764045715332,
				1.4321265553007834e-05
			]
		},
		{
			"children":[
				18
			],
			"name":"B-shoulder.R",
			"rotation":[
				-0.5111114382743835,
				0.45326271653175354,
				0.4845466613769531,
				0.546381413936615
			],
			"scale":[
				0.9999999403953552,
				0.9999999403953552,
				1
			],
			"translation":[
				0,
				19.115598678588867,
				-0.5313742756843567
			]
		},
		{
			"name":"B-jaw",
			"rotation":[
				0.7071067690849304,
				4.9424888857174665e-06,
				4.942349733028095e-06,
				0.7071067690849304
			],
			"translation":[
				0,
				-1.4934373211872298e-05,
				8.675851859152317e-07
			]
		},
		{
			"children":[
				20
			],
			"name":"B-head",
			"rotation":[
				-0.06999006867408752,
				0,
				0,
				0.9975477457046509
			],
			"translation":[
				0,
				7.409813404083252,
				0.00011777877807617188
			]
		},
		{
			"children":[
				21
			],
			"name":"B-neck",
			"rotation":[
				0.10320645570755005,
				0,
				0,
				0.994659960269928
			],
			"scale":[
				1,
				1,
				0.9999999403953552
			],
			"translation":[
				0,
				27.073171615600586,
				-2.5510787963867188e-05
			]
		},
		{
			"name":"B-indexFinger03.L",
			"rotation":[
				-0.006238203961402178,
				0.004023327957838774,
				-0.010918302461504936,
				0.9999128580093384
			],
			"scale":[
				1,
				1,
				1.0000001192092896
			],
			"translation":[
				-6.651878356933594e-05,
				3.8299174308776855,
				-6.616115570068359e-06
			]
		},
		{
			"children":[
				23
			],
			"name":"B-indexFinger02.L",
			"rotation":[
				0.05467065051198006,
				0.02874894253909588,
				-0.0041386778466403484,
				0.9980819225311279
			],
			"scale":[
				0.9999999403953552,
				0.9999998807907104,
				0.9999999403953552
			],
			"translation":[
				-1.0013580322265625e-05,
				5.168004035949707,
				-3.0860304832458496e-05
			]
		},
		{
			"children":[
				24
			],
			"name":"B-indexFinger01.L",
			"rotation":[
				0.01905355416238308,
				-0.014956958591938019,
				0.03131645545363426,
				0.9992159605026245
			],
			"scale":[
				0.9999999403953552,
				0.9999999403953552,
				0.9999999403953552
			],
			"translation":[
				-3.984727621078491,
				14.592114448547363,
				-0.24731755256652832
			]
		},
		{
			"name":"B-middleFinger03.L",
			"rotation":[
				0.004982330836355686,
				-0.02122696489095688,
				-0.006324106361716986,
				0.9997422695159912
			],
			"scale":[
				0.9999999403953552,
				1.0000001192092896,
				1.000000238418579
			],
			"translation":[
				-2.47955322265625e-05,
				3.9665515422821045,
				-1.8849968910217285e-05
			]
		},
		{
			"children":[
				26
			],
			"name":"B-middleFinger02.L",
			"rotation":[
				0.08092290908098221,
				0.04562409222126007,
				0.0077661932446062565,
				0.9956453442573547
			],
			"scale":[
				1.0000001192092896,
				1.0000001192092896,
				1
			],
			"translation":[
				-6.002187728881836e-05,
				5.384371757507324,
				-2.028048038482666e-05
			]
		},
		{
			"children":[
				27
			],
			"name":"B-middleFinger01.L",
			"rotation":[
				-0.004700272344052792,
				-0.003257103729993105,
				-0.0018007613252848387,
				0.9999820590019226
			],
			"scale":[
				1,
				0.9999999403953552,
				0.9999998807907104
			],
			"translation":[
				-1.0262936353683472,
				14.571593284606934,
				-0.987854540348053
			]
		},
		{
			"name":"B-ringFinger03.L",
			"rotation":[
				0.02091144770383835,
				-0.04065373167395592,
				-0.015794852748513222,
				0.9988296031951904
			],
			"scale":[
				1,
				0.9999998807907104,
				1
			],
			"translation":[
				4.121661186218262e-05,
				3.8347043991088867,
				5.23105263710022e-05
			]
		},
		{
			"children":[
				29
			],
			"name":"B-ringFinger02.L",
			"rotation":[
				0.06926971673965454,
				-0.0021100062876939774,
				0.022859573364257812,
				0.9973337650299072
			],
			"scale":[
				0.9999998211860657,
				0.9999997615814209,
				0.9999998211860657
			],
			"translation":[
				-5.453824996948242e-05,
				4.99489688873291,
				-9.184610098600388e-05
			]
		},
		{
			"children":[
				30
			],
			"name":"B-ringFinger01.L",
			"rotation":[
				-0.007116612978279591,
				0.001772649702616036,
				-0.03639964386820793,
				0.9993104338645935
			],
			"scale":[
				0.9999999403953552,
				1,
				0.9999999403953552
			],
			"translation":[
				1.7707446813583374,
				14.186845779418945,
				-0.6308431625366211
			]
		},
		{
			"name":"B-pinky03.L",
			"rotation":[
				0.022095346823334694,
				-0.021817848086357117,
				0.009210635907948017,
				0.999475359916687
			],
			"scale":[
				0.9999998807907104,
				1,
				0.9999999403953552
			],
			"translation":[
				4.971027374267578e-05,
				3.559014320373535,
				-2.522394061088562e-05
			]
		},
		{
			"children":[
				32
			],
			"name":"B-pinky02.L",
			"rotation":[
				0.06917965412139893,
				0.011152436956763268,
				0.016391417011618614,
				0.9974072575569153
			],
			"scale":[
				0.9999998211860657,
				0.9999998211860657,
				0.9999998211860657
			],
			"translation":[
				-2.384185791015625e-07,
				4.236180782318115,
				-5.0961971282958984e-06
			]
		},
		{
			"children":[
				33
			],
			"name":"B-pinky01.L",
			"rotation":[
				-0.009445766918361187,
				-0.016675205901265144,
				-0.05264657363295555,
				0.9984292984008789
			],
			"scale":[
				1,
				0.9999998211860657,
				0.9999999403953552
			],
			"translation":[
				4.595778942108154,
				13.234628677368164,
				-0.26856371760368347
			]
		},
		{
			"name":"B-thumb03.L",
			"rotation":[
				-0.06035282090306282,
				0.014395732432603836,
				0.007429400458931923,
				0.9980456233024597
			],
			"scale":[
				0.9999998807907104,
				0.9999998807907104,
				0.9999997615814209
			],
			"translation":[
				4.8160552978515625e-05,
				3.8914456367492676,
				7.236003875732422e-05
			]
		},
		{
			"children":[
				35
			],
			"name":"B-thumb02.L",
			"rotation":[
				0.03817218169569969,
				0.013301530852913857,
				-0.008043354377150536,
				0.999150276184082
			],
			"scale":[
				0.9999998807907104,
				0.9999999403953552,
				0.9999999403953552
			],
			"translation":[
				-4.553794860839844e-05,
				5.214545726776123,
				3.337860107421875e-06
			]
		},
		{
			"children":[
				36
			],
			"name":"B-thumb01.L",
			"rotation":[
				-0.04915565252304077,
				0.6880857348442078,
				0.2983192801475525,
				0.6596418619155884
			],
			"scale":[
				1,
				0.9999998807907104,
				1
			],
			"translation":[
				-4.3999834060668945,
				5.360055446624756,
				1.4425698518753052
			]
		},
		{
			"name":"B-handProp.L",
			"rotation":[
				-0.01366883423179388,
				0.012545829638838768,
				0.6760832667350769,
				0.736591637134552
			],
			"scale":[
				0.9999998211860657,
				1,
				0.9999998211860657
			],
			"translation":[
				0.3649391531944275,
				11.645601272583008,
				2.523712158203125
			]
		},
		{
			"children":[
				25,
				28,
				31,
				34,
				37,
				38
			],
			"name":"B-hand.L",
			"rotation":[
				0.013797670602798462,
				0.7053624987602234,
				0.03324061259627342,
				0.7079325318336487
			],
			"scale":[
				0.9999997615814209,
				0.9999996423721313,
				0.9999998807907104
			],
			"translation":[
				2.4102628231048584e-05,
				19.596389770507812,
				-0.00020575523376464844
			]
		},
		{
			"children":[
				39
			],
			"name":"B-forearm.L",
			"rotation":[
				0.0006594709120690823,
				-0.00042484779260121286,
				0.003200429491698742,
				0.9999945759773254
			],
			"scale":[
				0.9999999403953552,
				1,
				0.9999998807907104
			],
			"translation":[
				9.340234100818634e-06,
				23.41381072998047,
				-0.00020366907119750977
			]
		},
		{
			"children":[
				40
			],
			"name":"B-upperArm.L",
			"rotation":[
				0.023826127871870995,
				0.7095106840133667,
				-0.07335422188043594,
				0.7004613280296326
			],
			"scale":[
				1,
				1.0000001192092896,
				1
			],
			"translation":[
				-5.766586400568485e-05,
				20.15764045715332,
				1.4321265553007834e-05
			]
		},
		{
			"children":[
				41
			],
			"name":"B-shoulder.L",
			"rotation":[
				-0.5111114382743835,
				-0.45326271653175354,
				-0.4845466613769531,
				0.546381413936615
			],
			"scale":[
				0.9999999403953552,
				0.9999999403953552,
				1
			],
			"translation":[
				0,
				19.115598678588867,
				-0.5313742756843567
			]
		},
		{
			"children":[
				19,
				22,
				42
			],
			"name":"B-chest",
			"rotation":[
				-0.036337725818157196,
				0,
				0,
				0.9993395805358887
			],
			"translation":[
				0,
				20.032878875732422,
				3.4570693969726562e-06
			]
		},
		{
			"children":[
				43
			],
			"name":"B-spine",
			"rotation":[
				-0.03612755984067917,
				0,
				0,
				0.9993471503257751
			],
			"scale":[
				1,
				0.9999997615814209,
				0.9999998807907104
			],
			"translation":[
				0,
				8.378148078918457,
				-3.933906555175781e-05
			]
		},
		{
			"name":"B-toe.L",
			"rotation":[
				3.4561239203867444e-07,
				0.9577621817588806,
				-0.28756141662597656,
				6.431799306483299e-07
			],
			"scale":[
				0.9999999403953552,
				0.9999998807907104,
				1
			],
			"translation":[
				-2.402794052613899e-05,
				17.74432373046875,
				-3.12289412249811e-05
			]
		},
		{
			"children":[
				45
			],
			"name":"B-foot.L",
			"rotation":[
				-0.5175891518592834,
				0.009148127399384975,
				0.0052672382444143295,
				0.8555641770362854
			],
			"scale":[
				1.0000001192092896,
				1,
				0.9999999403953552
			],
			"translation":[
				-2.1141022443771362e-06,
				38.80775833129883,
				7.43567943572998e-05
			]
		},
		{
			"children":[
				46
			],
			"name":"B-shin.L",
			"rotation":[
				0.06803733855485916,
				0.0038439552299678326,
				0.036836493760347366,
				0.9969951510429382
			],
			"scale":[
				0.9999998211860657,
				0.9999999403953552,
				0.9999998211860657
			],
			"translation":[
				-3.14861536026001e-05,
				41.22321319580078,
				-7.289648056030273e-05
			]
		},
		{
			"children":[
				47
			],
			"name":"B-thigh.L",
			"rotation":[
				0.9976028800010681,
				0.037484060972929,
				-0.013965435326099396,
				0.056466612964868546
			],
			"scale":[
				1.0000040531158447,
				1,
				1.0000085830688477
			],
			"translation":[
				8.695099830627441,
				-5.449880123138428,
				0.09344422817230225
			]
		},
		{
			"name":"B-toe.R",
			"rotation":[
				3.1307868653129844e-07,
				-0.9577640891075134,
				0.2875552177429199,
				1.2140528724557953e-06
			],
			"scale":[
				1,
				0.9999998807907104,
				1.0000001192092896
			],
			"translation":[
				-0.0002542018482927233,
				17.744718551635742,
				5.879125092178583e-05
			]
		},
		{
			"children":[
				49
			],
			"name":"B-foot.R",
			"rotation":[
				-0.5175945162773132,
				-0.009161590598523617,
				-0.005274065770208836,
				0.8555607795715332
			],
			"scale":[
				1.0000001192092896,
				1,
				1
			],
			"translation":[
				6.0228630900382996e-05,
				38.80772399902344,
				-6.119906902313232e-05
			]
		},
		{
			"children":[
				50
			],
			"name":"B-shin.R",
			"rotation":[
				0.06803930550813675,
				-0.0038443522062152624,
				-0.03683598339557648,
				0.9969949722290039
			],
			"scale":[
				0.9999999403953552,
				1,
				1
			],
			"translation":[
				-0.00012606382369995117,
				41.223114013671875,
				0.0001258254051208496
			]
		},
		{
			"children":[
				51
			],
			"name":"B-thigh.R",
			"rotation":[
				0.9976027011871338,
				-0.03748320788145065,
				0.013970235362648964,
				0.05646832659840584
			],
			"scale":[
				1.0000017881393433,
				0.9999999403953552,
				1.000003695487976
			],
			"translation":[
				-8.695099830627441,
				-5.449971675872803,
				0.09345138072967529
			]
		},
		{
			"children":[
				44,
				48,
				52
			],
			"name":"B-hips",
			"rotation":[
				0.03912794962525368,
				0,
				0,
				0.9992342591285706
			],
			"scale":[
				1,
				0.9999999403953552,
				0.9999999403953552
			],
			"translation":[
				0,
				97.97119140625,
				1.6772000789642334
			]
		},
		{
			"name":"B-spineProxy",
			"rotation":[
				0.0030025136657059193,
				0,
				0,
				0.9999954700469971
			],
			"translation":[
				0,
				106.32369232177734,
				2.3322999477386475
			]
		},
		{
			"children":[
				53,
				54
			],
			"name":"B-root",
			"rotation":[
				7.105427357601002e-15,
				0,
				0,
				1
			]
		},
		{
			"children":[
				55
			],
			"name":"Rig",
			"rotation":[
				0.70710688829422,
				0,
				0,
				0.7071066498756409
			],
			"scale":[
				0.009999999776482582,
				0.009999999776482582,
				0.009999999776482582
			]
		}
	],
	"animations":[
		{
			"channels":[
				{
					"sampler":0,
					"target":{
						"node":55,
						"path":"translation"
					}
				},
				{
					"sampler":1,
					"target":{
						"node":55,
						"path":"rotation"
					}
				},
				{
					"sampler":2,
					"target":{
						"node":55,
						"path":"scale"
					}
				},
				{
					"sampler":3,
					"target":{
						"node":53,
						"path":"translation"
					}
				},
				{
					"sampler":4,
					"target":{
						"node":53,
						"path":"rotation"
					}
				},
				{
					"sampler":5,
					"target":{
						"node":53,
						"path":"scale"
					}
				},
				{
					"sampler":6,
					"target":{
						"node":44,
						"path":"translation"
					}
				},
				{
					"sampler":7,
					"target":{
						"node":44,
						"path":"rotation"
					}
				},
				{
					"sampler":8,
					"target":{
						"node":44,
						"path":"scale"
					}
				},
				{
					"sampler":9,
					"target":{
						"node":43,
						"path":"translation"
					}
				},
				{
					"sampler":10,
					"target":{
						"node":43,
						"path":"rotation"
					}
				},
				{
					"sampler":11,
					"target":{
						"node":43,
						"path":"scale"
					}
				},
				{
					"sampler":12,
					"target":{
						"node":19,
						"path":"translation"
					}
				},
				{
					"sampler":13,
					"target":{
						"node":19,
						"path":"rotation"
					}
				},
				{
					"sampler":14,
					"target":{
						"node":19,
						"path":"scale"
					}
				},
				{
					"sampler":15,
					"target":{
						"node":18,
						"path":"translation"
					}
				},
				{
					"sampler":16,
					"target":{
						"node":18,
						"path":"rotation"
					}
				},
				{
					"sampler":17,
					"target":{
						"node":18,
						"path":"scale"
					}
				},
				{
					"sampler":18,
					"target":{
						"node":17,
						"path":"translation"
					}
				},
				{
					"sampler":19,
					"target":{
						"node":17,
						"path":"rotation"
					}
				},
				{
					"sampler":20,
					"target":{
						"node":17,
						"path":"scale"
					}
				},
				{
					"sampler":21,
					"target":{
						"node":16,
						"path":"translation"
					}
				},
				{
					"sampler":22,
					"target":{
						"node":16,
						"path":"rotation"
					}
				},
				{
					"sampler":23,
					"target":{
						"node":16,
						"path":"scale"
					}
				},
				{
					"sampler":24,
					"target":{
						"node":2,
						"path":"translation"
					}
				},
				{
					"sampler":25,
					"target":{
						"node":2,
						"path":"rotation"
					}
				},
				{
					"sampler":26,
					"target":{
						"node":2,
						"path":"scale"
					}
				},
				{
					"sampler":27,
					"target":{
						"node":1,
						"path":"translation"
					}
				},
				{
					"sampler":28,
					"target":{
						"node":1,
						"path":"rotation"
					}
				},
				{
					"sampler":29,
					"target":{
						"node":1,
						"path":"scale"
					}
				},
				{
					"sampler":30,
					"target":{
						"node":0,
						"path":"translation"
					}
				},
				{
					"sampler":31,
					"target":{
						"node":0,
						"path":"rotation"
					}
				},
				{
					"sampler":32,
					"target":{
						"node":0,
						"path":"scale"
					}
				},
				{
					"sampler":33,
					"target":{
						"node":5,
						"path":"translation"
					}
				},
				{
					"sampler":34,
					"target":{
						"node":5,
						"path":"rotation"
					}
				},
				{
					"sampler":35,
					"target":{
						"node":5,
						"path":"scale"
					}
				},
				{
					"sampler":36,
					"target":{
						"node":4,
						"path":"translation"
					}
				},
				{
					"sampler":37,
					"target":{
						"node":4,
						"path":"rotation"
					}
				},
				{
					"sampler":38,
					"target":{
						"node":4,
						"path":"scale"
					}
				},
				{
					"sampler":39,
					"target":{
						"node":3,
						"path":"translation"
					}
				},
				{
					"sampler":40,
					"target":{
						"node":3,
						"path":"rotation"
					}
				},
				{
					"sampler":41,
					"target":{
						"node":3,
						"path":"scale"
					}
				},
				{
					"sampler":42,
					"target":{
						"node":8,
						"path":"translation"
					}
				},
				{
					"sampler":43,
					"target":{
						"node":8,
						"path":"rotation"
					}
				},
				{
					"sampler":44,
					"target":{
						"node":8,
						"path":"scale"
					}
				},
				{
					"sampler":45,
					"target":{
						"node":7,
						"path":"translation"
					}
				},
				{
					"sampler":46,
					"target":{
						"node":7,
						"path":"rotation"
					}
				},
				{
					"sampler":47,
					"target":{
						"node":7,
						"path":"scale"
					}
				},
				{
					"sampler":48,
					"target":{
						"node":6,
						"path":"translation"
					}
				},
				{
					"sampler":49,
					"target":{
						"node":6,
						"path":"rotation"
					}
				},
				{
					"sampler":50,
					"target":{
						"node":6,
						"path":"scale"
					}
				},
				{
					"sampler":51,
					"target":{
						"node":11,
						"path":"translation"
					}
				},
				{
					"sampler":52,
					"target":{
						"node":11,
						"path":"rotation"
					}
				},
				{
					"sampler":53,
					"target":{
						"node":11,
						"path":"scale"
					}
				},
				{
					"sampler":54,
					"target":{
						"node":10,
						"path":"translation"
					}
				},
				{
					"sampler":55,
					"target":{
						"node":10,
						"path":"rotation"
					}
				},
				{
					"sampler":56,
					"target":{
						"node":10,
						"path":"scale"
					}
				},
				{
					"sampler":57,
					"target":{
						"node":9,
						"path":"translation"
					}
				},
				{
					"sampler":58,
					"target":{
						"node":9,
						"path":"rotation"
					}
				},
				{
					"sampler":59,
					"target":{
						"node":9,
						"path":"scale"
					}
				},
				{
					"sampler":60,
					"target":{
						"node":14,
						"path":"translation"
					}
				},
				{
					"sampler":61,
					"target":{
						"node":14,
						"path":"rotation"
					}
				},
				{
					"sampler":62,
					"target":{
						"node":14,
						"path":"scale"
					}
				},
				{
					"sampler":63,
					"target":{
						"node":13,
						"path":"translation"
					}
				},
				{
					"sampler":64,
					"target":{
						"node":13,
						"path":"rotation"
					}
				},
				{
					"sampler":65,
					"target":{
						"node":13,
						"path":"scale"
					}
				},
				{
					"sampler":66,
					"target":{
						"node":12,
						"path":"translation"
					}
				},
				{
					"sampler":67,
					"target":{
						"node":12,
						"path":"rotation"
					}
				},
				{
					"sampler":68,
					"target":{
						"node":12,
						"path":"scale"
					}
				},
				{
					"sampler":69,
					"target":{
						"node":15,
						"path":"translation"
					}
				},
				{
					"sampler":70,
					"target":{
						"node":15,
						"path":"rotation"
					}
				},
				{
					"sampler":71,
					"target":{
						"node":15,
						"path":"scale"
					}
				},
				{
					"sampler":72,
					"target":{
						"node":22,
						"path":"translation"
					}
				},
				{
					"sampler":73,
					"target":{
						"node":22,
						"path":"rotation"
					}
				},
				{
					"sampler":74,
					"target":{
						"node":22,
						"path":"scale"
					}
				},
				{
					"sampler":75,
					"target":{
						"node":21,
						"path":"translation"
					}
				},
				{
					"sampler":76,
					"target":{
						"node":21,
						"path":"rotation"
					}
				},
				{
					"sampler":77,
					"target":{
						"node":21,
						"path":"scale"
					}
				},
				{
					"sampler":78,
					"target":{
						"node":20,
						"path":"translation"
					}
				},
				{
					"sampler":79,
					"target":{
						"node":20,
						"path":"rotation"
					}
				},
				{
					"sampler":80,
					"target":{
						"node":20,
						"path":"scale"
					}
				},
				{
					"sampler":81,
					"target":{
						"node":42,
						"path":"translation"
					}
				},
				{
					"sampler":82,
					"target":{
						"node":42,
						"path":"rotation"
					}
				},
				{
					"sampler":83,
					"target":{
						"node":42,
						"path":"scale"
					}
				},
				{
					"sampler":84,
					"target":{
						"node":41,
						"path":"translation"
					}
				},
				{
					"sampler":85,
					"target":{
						"node":41,
						"path":"rotation"
					}
				},
				{
					"sampler":86,
					"target":{
						"node":41,
						"path":"scale"
					}
				},
				{
					"sampler":87,
					"target":{
						"node":40,
						"path":"translation"
					}
				},
				{
					"sampler":88,
					"target":{
						"node":40,
						"path":"rotation"
					}
				},
				{
					"sampler":89,
					"target":{
						"node":40,
						"path":"scale"
					}
				},
				{
					"sampler":90,
					"target":{
						"node":39,
						"path":"translation"
					}
				},
				{
					"sampler":91,
					"target":{
						"node":39,
						"path":"rotation"
					}
				},
				{
					"sampler":92,
					"target":{
						"node":39,
						"path":"scale"
					}
				},
				{
					"sampler":93,
					"target":{
						"node":25,
						"path":"translation"
					}
				},
				{
					"sampler":94,
					"target":{
						"node":25,
						"path":"rotation"
					}
				},
				{
					"sampler":95,
					"target":{
						"node":25,
						"path":"scale"
					}
				},
				{
					"sampler":96,
					"target":{
						"node":24,
						"path":"translation"
					}
				},
				{
					"sampler":97,
					"target":{
						"node":24,
						"path":"rotation"
					}
				},
				{
					"sampler":98,
					"target":{
						"node":24,
						"path":"scale"
					}
				},
				{
					"sampler":99,
					"target":{
						"node":23,
						"path":"translation"
					}
				},
				{
					"sampler":100,
					"target":{
						"node":23,
						"path":"rotation"
					}
				},
				{
					"sampler":101,
					"target":{
						"node":23,
						"path":"scale"
					}
				},
				{
					"sampler":102,
					"target":{
						"node":28,
						"path":"translation"
					}
				},
				{
					"sampler":103,
					"target":{
						"node":28,
						"path":"rotation"
					}
				},
				{
					"sampler":104,
					"target":{
						"node":28,
						"path":"scale"
					}
				},
				{
					"sampler":105,
					"target":{
						"node":27,
						"path":"translation"
					}
				},
				{
					"sampler":106,
					"target":{
						"node":27,
						"path":"rotation"
					}
				},
				{
					"sampler":107,
					"target":{
						"node":27,
						"path":"scale"
					}
				},
				{
					"sampler":108,
					"target":{
						"node":26,
						"path":"translation"
					}
				},
				{
					"sampler":109,
					"target":{
						"node":26,
						"path":"rotation"
					}
				},
				{
					"sampler":110,
					"target":{
						"node":26,
						"path":"scale"
					}
				},
				{
					"sampler":111,
					"target":{
						"node":31,
						"path":"translation"
					}
				},
				{
					"sampler":112,
					"target":{
						"node":31,
						"path":"rotation"
					}
				},
				{
					"sampler":113,
					"target":{
						"node":31,
						"path":"scale"
					}
				},
				{
					"sampler":114,
					"target":{
						"node":30,
						"path":"translation"
					}
				},
				{
					"sampler":115,
					"target":{
						"node":30,
						"path":"rotation"
					}
				},
				{
					"sampler":116,
					"target":{
						"node":30,
						"path":"scale"
					}
				},
				{
					"sampler":117,
					"target":{
						"node":29,
						"path":"translation"
					}
				},
				{
					"sampler":118,
					"target":{
						"node":29,
						"path":"rotation"
					}
				},
				{
					"sampler":119,
					"target":{
						"node":29,
						"path":"scale"
					}
				},
				{
					"sampler":120,
					"target":{
						"node":34,
						"path":"translation"
					}
				},
				{
					"sampler":121,
					"target":{
						"node":34,
						"path":"rotation"
					}
				},
				{
					"sampler":122,
					"target":{
						"node":34,
						"path":"scale"
					}
				},
				{
					"sampler":123,
					"target":{
						"node":33,
						"path":"translation"
					}
				},
				{
					"sampler":124,
					"target":{
						"node":33,
						"path":"rotation"
					}
				},
				{
					"sampler":125,
					"target":{
						"node":33,
						"path":"scale"
					}
				},
				{
					"sampler":126,
					"target":{
						"node":32,
						"path":"translation"
					}
				},
				{
					"sampler":127,
					"target":{
						"node":32,
						"path":"rotation"
					}
				},
				{
					"sampler":128,
					"target":{
						"node":32,
						"path":"scale"
					}
				},
				{
					"sampler":129,
					"target":{
						"node":37,
						"path":"translation"
					}
				},
				{
					"sampler":130,
					"target":{
						"node":37,
						"path":"rotation"
					}
				},
				{
					"sampler":131,
					"target":{
						"node":37,
						"path":"scale"
					}
				},
				{
					"sampler":132,
					"target":{
						"node":36,
						"path":"translation"
					}
				},
				{
					"sampler":133,
					"target":{
						"node":36,
						"path":"rotation"
					}
				},
				{
					"sampler":134,
					"target":{
						"node":36,
						"path":"scale"
					}
				},
				{
					"sampler":135,
					"target":{
						"node":35,
						"path":"translation"
					}
				},
				{
					"sampler":136,
					"target":{
						"node":35,
						"path":"rotation"
					}
				},
				{
					"sampler":137,
					"target":{
						"node":35,
						"path":"scale"
					}
				},
				{
					"sampler":138,
					"target":{
						"node":38,
						"path":"translation"
					}
				},
				{
					"sampler":139,
					"target":{
						"node":38,
						"path":"rotation"
					}
				},
				{
					"sampler":140,
					"target":{
						"node":38,
						"path":"scale"
					}
				},
				{
					"sampler":141,
					"target":{
						"node":48,
						"path":"translation"
					}
				},
				{
					"sampler":142,
					"target":{
						"node":48,
						"path":"rotation"
					}
				},
				{
					"sampler":143,
					"target":{
						"node":48,
						"path":"scale"
					}
				},
				{
					"sampler":144,
					"target":{
						"node":47,
						"path":"translation"
					}
				},
				{
					"sampler":145,
					"target":{
						"node":47,
						"path":"rotation"
					}
				},
				{
					"sampler":146,
					"target":{
						"node":47,
						"path":"scale"
					}
				},
				{
					"sampler":147,
					"target":{
						"node":46,
						"path":"translation"
					}
				},
				{
					"sampler":148,
					"target":{
						"node":46,
						"path":"rotation"
					}
				},
				{
					"sampler":149,
					"target":{
						"node":46,
						"path":"scale"
					}
				},
				{
					"sampler":150,
					"target":{
						"node":45,
						"path":"translation"
					}
				},
				{
					"sampler":151,
					"target":{
						"node":45,
						"path":"rotation"
					}
				},
				{
					"sampler":152,
					"target":{
						"node":45,
						"path":"scale"
					}
				},
				{
					"sampler":153,
					"target":{
						"node":52,
						"path":"translation"
					}
				},
				{
					"sampler":154,
					"target":{
						"node":52,
						"path":"rotation"
					}
				},
				{
					"sampler":155,
					"target":{
						"node":52,
						"path":"scale"
					}
				},
				{
					"sampler":156,
					"target":{
						"node":51,
						"path":"translation"
					}
				},
				{
					"sampler":157,
					"target":{
						"node":51,
						"path":"rotation"
					}
				},
				{
					"sampler":158,
					"target":{
						"node":51,
						"path":"scale"
					}
				},
				{
					"sampler":159,
					"target":{
						"node":50,
						"path":"translation"
					}
				},
				{
					"sampler":160,
					"target":{
						"node":50,
						"path":"rotation"
					}
				},
				{
					"sampler":161,
					"target":{
						"node":50,
						"path":"scale"
					}
				},
				{
					"sampler":162,
					"target":{
						"node":49,
						"path":"translation"
					}
				},
				{
					"sampler":163,
					"target":{
						"node":49,
						"path":"rotation"
					}
				},
				{
					"sampler":164,
					"target":{
						"node":49,
						"path":"scale"
					}
				},
				{
					"sampler":165,
					"target":{
						"node":54,
						"path":"translation"
					}
				},
				{
					"sampler":166,
					"target":{
						"node":54,
						"path":"rotation"
					}
				},
				{
					"sampler":167,
					"target":{
						"node":54,
						"path":"scale"
					}
				},
				{
					"sampler":168,
					"target":{
						"node":56,
						"path":"translation"
					}
				},
				{
					"sampler":169,
					"target":{
						"node":56,
						"path":"rotation"
					}
				},
				{
					"sampler":170,
					"target":{
						"node":56,
						"path":"scale"
					}
				}
			],
			"name":"HumanM@BowShot01 - Release",
			"samplers":[
				{
					"input":0,
					"interpolation":"STEP",
					"output":1
				},
				{
					"input":0,
					"interpolation":"STEP",
					"output":2
				},
				{
					"input":0,
					"interpolation":"STEP",
					"output":3
				},
				{
					"input":4,
					"interpolation":"LINEAR",
					"output":5
				},
				{
					"input":4,
					"interpolation":"LINEAR",
					"output":6
				},
				{
					"input":0,
					"interpolation":"STEP",
					"output":7
				},
				{
					"input":4,
					"interpolation":"LINEAR",
					"output":8
				},
				{
					"input":4,
					"interpolation":"LINEAR",
					"output":9
				},
				{
					"input":0,
					"interpolation":"LINEAR",
					"output":10
				},
				{
					"input":4,
					"interpolation":"LINEAR",
					"output":11
				},
				{
					"input":4,
					"interpolation":"LINEAR",
					"output":12
				},
				{
					"input":0,
					"interpolation":"LINEAR",
					"output":13
				},
				{
					"input":4,
					"interpolation":"LINEAR",
					"output":14
				},
				{
					"input":4,
					"interpolation":"LINEAR",
					"output":15
				},
				{
					"input":0,
					"interpolation":"STEP",
					"output":16
				},
				{
					"input":4,
					"interpolation":"LINEAR",
					"output":17
				},
				{
					"input":4,
					"interpolation":"LINEAR",
					"output":18
				},
				{
					"input":0,
					"interpolation":"LINEAR",
					"output":19
				},
				{
					"input":0,
					"interpolation":"LINEAR",
					"output":20
				},
				{
					"input":4,
					"interpolation":"LINEAR",
					"output":21
				},
				{
					"input":0,
					"interpolation":"LINEAR",
					"output":22
				},
				{
					"input":0,
					"interpolation":"LINEAR",
					"output":23
				},
				{
					"input":4,
					"interpolation":"LINEAR",
					"output":24
				},
				{
					"input":0,
					"interpolation":"LINEAR",
					"output":25
				},
				{
					"input":0,
					"interpolation":"LINEAR",
					"output":26
				},
				{
					"input":4,
					"interpolation":"LINEAR",
					"output":27
				},
				{
					"input":0,
					"interpolation":"LINEAR",
					"output":28
				},
				{
					"input":0,
					"interpolation":"LINEAR",
					"output":29
				},
				{
					"input":4,
					"interpolation":"LINEAR",
					"output":30
				},
				{
					"input":0,
					"interpolation":"LINEAR",
					"output":31
				},
				{
					"input":0,
					"interpolation":"LINEAR",
					"output":32
				},
				{
					"input":4,
					"interpolation":"LINEAR",
					"output":33
				},
				{
					"input":0,
					"interpolation":"LINEAR",
					"output":34
				},
				{
					"input":0,
					"interpolation":"LINEAR",
					"output":35
				},
				{
					"input":4,
					"interpolation":"LINEAR",
					"output":36
				},
				{
					"input":0,
					"interpolation":"LINEAR",
					"output":37
				},
				{
					"input":0,
					"interpolation":"LINEAR",
					"output":38
				},
				{
					"input":4,
					"interpolation":"LINEAR",
					"output":39
				},
				{
					"input":0,
					"interpolation":"LINEAR",
					"output":40
				},
				{
					"input":0,
					"interpolation":"LINEAR",
					"output":41
				},
				{
					"input":4,
					"interpolation":"LINEAR",
					"output":42
				},
				{
					"input":0,
					"interpolation":"LINEAR",
					"output":43
				},
				{
					"input":0,
					"interpolation":"LINEAR",
					"output":44
				},
				{
					"input":4,
					"interpolation":"LINEAR",
					"output":45
				},
				{
					"input":0,
					"interpolation":"LINEAR",
					"output":46
				},
				{
					"input":0,
					"interpolation":"LINEAR",
					"output":47
				},
				{
					"input":4,
					"interpolation":"LINEAR",
					"output":48
				},
				{
					"input":0,
					"interpolation":"LINEAR",
					"output":49
				},
				{
					"input":0,
					"interpolation":"LINEAR",
					"output":50
				},
				{
					"input":4,
					"interpolation":"LINEAR",
					"output":51
				},
				{
					"input":0,
					"interpolation":"STEP",
					"output":52
				},
				{
					"input":0,
					"interpolation":"LINEAR",
					"output":53
				},
				{
					"input":4,
					"interpolation":"LINEAR",
					"output":54
				},
				{
					"input":0,
					"interpolation":"LINEAR",
					"output":55
				},
				{
					"input":0,
					"interpolation":"LINEAR",
					"output":56
				},
				{
					"input":4,
					"interpolation":"LINEAR",
					"output":57
				},
				{
					"input":0,
					"interpolation":"STEP",
					"output":58
				},
				{
					"input":0,
					"interpolation":"LINEAR",
					"output":59
				},
				{
					"input":4,
					"interpolation":"LINEAR",
					"output":60
				},
				{
					"input":0,
					"interpolation":"LINEAR",
					"output":61
				},
				{
					"input":0,
					"interpolation":"LINEAR",
					"output":62
				},
				{
					"input":4,
					"interpolation":"LINEAR",
					"output":63
				},
				{
					"input":0,
					"interpolation":"LINEAR",
					"output":64
				},
				{
					"input":0,
					"interpolation":"LINEAR",
					"output":65
				},
				{
					"input":4,
					"interpolation":"LINEAR",
					"output":66
				},
				{
					"input":0,
					"interpolation":"LINEAR",
					"output":67
				},
				{
					"input":0,
					"interpolation":"LINEAR",
					"output":68
				},
				{
					"input":4,
					"interpolation":"LINEAR",
					"output":69
				},
				{
					"input":0,
					"interpolation":"LINEAR",
					"output":70
				},
				{
					"input":4,
					"interpolation":"LINEAR",
					"output":71
				},
				{
					"input":4,
					"interpolation":"LINEAR",
					"output":72
				},
				{
					"input":0,
					"interpolation":"STEP",
					"output":73
				},
				{
					"input":4,
					"interpolation":"LINEAR",
					"output":74
				},
				{
					"input":4,
					"interpolation":"LINEAR",
					"output":75
				},
				{
					"input":0,
					"interpolation":"LINEAR",
					"output":76
				},
				{
					"input":4,
					"interpolation":"LINEAR",
					"output":77
				},
				{
					"input":0,
					"interpolation":"LINEAR",
					"output":78
				},
				{
					"input":0,
					"interpolation":"LINEAR",
					"output":79
				},
				{
					"input":0,
					"interpolation":"LINEAR",
					"output":80
				},
				{
					"input":0,
					"interpolation":"LINEAR",
					"output":81
				},
				{
					"input":0,
					"interpolation":"STEP",
					"output":82
				},
				{
					"input":4,
					"interpolation":"LINEAR",
					"output":83
				},
				{
					"input":4,
					"interpolation":"LINEAR",
					"output":84
				},
				{
					"input":0,
					"interpolation":"LINEAR",
					"output":85
				},
				{
					"input":4,
					"interpolation":"LINEAR",
					"output":86
				},
				{
					"input":4,
					"interpolation":"LINEAR",
					"output":87
				},
				{
					"input":0,
					"interpolation":"LINEAR",
					"output":88
				},
				{
					"input":0,
					"interpolation":"LINEAR",
					"output":89
				},
				{
					"input":4,
					"interpolation":"LINEAR",
					"output":90
				},
				{
					"input":0,
					"interpolation":"LINEAR",
					"output":91
				},
				{
					"input":0,
					"interpolation":"LINEAR",
					"output":92
				},
				{
					"input":4,
					"interpolation":"LINEAR",
					"output":93
				},
				{
					"input":0,
					"interpolation":"LINEAR",
					"output":94
				},
				{
					"input":0,
					"interpolation":"LINEAR",
					"output":95
				},
				{
					"input":0,
					"interpolation":"LINEAR",
					"output":96
				},
				{
					"input":0,
					"interpolation":"LINEAR",
					"output":97
				},
				{
					"input":0,
					"interpolation":"LINEAR",
					"output":98
				},
				{
					"input":0,
					"interpolation":"LINEAR",
					"output":99
				},
				{
					"input":0,
					"interpolation":"LINEAR",
					"output":100
				},
				{
					"input":0,
					"interpolation":"LINEAR",
					"output":101
				},
				{
					"input":0,
					"interpolation":"LINEAR",
					"output":102
				},
				{
					"input":0,
					"interpolation":"STEP",
					"output":103
				},
				{
					"input":0,
					"interpolation":"LINEAR",
					"output":104
				},
				{
					"input":0,
					"interpolation":"LINEAR",
					"output":105
				},
				{
					"input":0,
					"interpolation":"STEP",
					"output":106
				},
				{
					"input":0,
					"interpolation":"LINEAR",
					"output":107
				},
				{
					"input":0,
					"interpolation":"LINEAR",
					"output":108
				},
				{
					"input":0,
					"interpolation":"STEP",
					"output":109
				},
				{
					"input":0,
					"interpolation":"LINEAR",
					"output":110
				},
				{
					"input":0,
					"interpolation":"LINEAR",
					"output":111
				},
				{
					"input":0,
					"interpolation":"LINEAR",
					"output":112
				},
				{
					"input":0,
					"interpolation":"LINEAR",
					"output":113
				},
				{
					"input":0,
					"interpolation":"LINEAR",
					"output":114
				},
				{
					"input":0,
					"interpolation":"LINEAR",
					"output":115
				},
				{
					"input":0,
					"interpolation":"LINEAR",
					"output":116
				},
				{
					"input":0,
					"interpolation":"LINEAR",
					"output":117
				},
				{
					"input":0,
					"interpolation":"LINEAR",
					"output":118
				},
				{
					"input":0,
					"interpolation":"LINEAR",
					"output":119
				},
				{
					"input":0,
					"interpolation":"LINEAR",
					"output":120
				},
				{
					"input":0,
					"interpolation":"LINEAR",
					"output":121
				},
				{
					"input":0,
					"interpolation":"LINEAR",
					"output":122
				},
				{
					"input":0,
					"interpolation":"LINEAR",
					"output":123
				},
				{
					"input":0,
					"interpolation":"LINEAR",
					"output":124
				},
				{
					"input":0,
					"interpolation":"LINEAR",
					"output":125
				},
				{
					"input":0,
					"interpolation":"LINEAR",
					"output":126
				},
				{
					"input":0,
					"interpolation":"STEP",
					"output":127
				},
				{
					"input":0,
					"interpolation":"LINEAR",
					"output":128
				},
				{
					"input":0,
					"interpolation":"LINEAR",
					"output":129
				},
				{
					"input":0,
					"interpolation":"STEP",
					"output":130
				},
				{
					"input":0,
					"interpolation":"LINEAR",
					"output":131
				},
				{
					"input":0,
					"interpolation":"LINEAR",
					"output":132
				},
				{
					"input":0,
					"interpolation":"LINEAR",
					"output":133
				},
				{
					"input":0,
					"interpolation":"LINEAR",
					"output":134
				},
				{
					"input":0,
					"interpolation":"LINEAR",
					"output":135
				},
				{
					"input":0,
					"interpolation":"STEP",
					"output":136
				},
				{
					"input":0,
					"interpolation":"LINEAR",
					"output":137
				},
				{
					"input":0,
					"interpolation":"LINEAR",
					"output":138
				},
				{
					"input":0,
					"interpolation":"LINEAR",
					"output":139
				},
				{
					"input":4,
					"interpolation":"LINEAR",
					"output":140
				},
				{
					"input":0,
					"interpolation":"LINEAR",
					"output":141
				},
				{
					"input":0,
					"interpolation":"STEP",
					"output":142
				},
				{
					"input":4,
					"interpolation":"LINEAR",
					"output":143
				},
				{
					"input":4,
					"interpolation":"LINEAR",
					"output":144
				},
				{
					"input":0,
					"interpolation":"LINEAR",
					"output":145
				},
				{
					"input":0,
					"interpolation":"LINEAR",
					"output":146
				},
				{
					"input":4,
					"interpolation":"LINEAR",
					"output":147
				},
				{
					"input":0,
					"interpolation":"LINEAR",
					"output":148
				},
				{
					"input":0,
					"interpolation":"LINEAR",
					"output":149
				},
				{
					"input":4,
					"interpolation":"LINEAR",
					"output":150
				},
				{
					"input":0,
					"interpolation":"LINEAR",
					"output":151
				},
				{
					"input":4,
					"interpolation":"LINEAR",
					"output":152
				},
				{
					"input":4,
					"interpolation":"LINEAR",
					"output":153
				},
				{
					"input":0,
					"interpolation":"STEP",
					"output":154
				},
				{
					"input":4,
					"interpolation":"LINEAR",
					"output":155
				},
				{
					"input":4,
					"interpolation":"LINEAR",
					"output":156
				},
				{
					"input":0,
					"interpolation":"LINEAR",
					"output":157
				},
				{
					"input":0,
					"interpolation":"LINEAR",
					"output":158
				},
				{
					"input":4,
					"interpolation":"LINEAR",
					"output":159
				},
				{
					"input":0,
					"interpolation":"LINEAR",
					"output":160
				},
				{
					"input":0,
					"interpolation":"LINEAR",
					"output":161
				},
				{
					"input":4,
					"interpolation":"LINEAR",
					"output":162
				},
				{
					"input":0,
					"interpolation":"LINEAR",
					"output":163
				},
				{
					"input":4,
					"interpolation":"LINEAR",
					"output":164
				},
				{
					"input":4,
					"interpolation":"LINEAR",
					"output":165
				},
				{
					"input":0,
					"interpolation":"LINEAR",
					"output":166
				},
				{
					"input":4,
					"interpolation":"LINEAR",
					"output":167
				},
				{
					"input":4,
					"interpolation":"LINEAR",
					"output":168
				},
				{
					"input":0,
					"interpolation":"LINEAR",
					"output":169
				},
				{
					"input":0,
					"interpolation":"STEP",
					"output":170
				},
				{
					"input":0,
					"interpolation":"STEP",
					"output":171
				},
				{
					"input":0,
					"interpolation":"STEP",
					"output":172
				}
			]
		}
	],
	"skins":[
		{
			"inverseBindMatrices":173,
			"joints":[
				55,
				53,
				44,
				43,
				19,
				18,
				17,
				16,
				2,
				1,
				0,
				5,
				4,
				3,
				8,
				7,
				6,
				11,
				10,
				9,
				14,
				13,
				12,
				15,
				22,
				21,
				20,
				42,
				41,
				40,
				39,
				25,
				24,
				23,
				28,
				27,
				26,
				31,
				30,
				29,
				34,
				33,
				32,
				37,
				36,
				35,
				38,
				48,
				47,
				46,
				45,
				52,
				51,
				50,
				49,
				54
			],
			"name":"Rig"
		}
	],
	"accessors":[
		{
			"bufferView":0,
			"componentType":5126,
			"count":2,
			"max":[
				0.84
			],
			"min":[
				0.04
			],
			"type":"SCALAR"
		},
		{
			"bufferView":1,
			"componentType":5126,
			"count":2,
			"type":"VEC3"
		},
		{
			"bufferView":2,
			"componentType":5126,
			"count":2,
			"type":"VEC4"
		},
		{
			"bufferView":3,
			"componentType":5126,
			"count":2,
			"type":"VEC3"
		},
		{
			"bufferView":4,
			"componentType":5126,
			"count":21,
			"max":[
				0.84
			],
			"min":[
				0.04
			],
			"type":"SCALAR"
		},
		{
			"bufferView":5,
			"componentType":5126,
			"count":21,
			"type":"VEC3"
		},
		{
			"bufferView":6,
			"componentType":5126,
			"count":21,
			"type":"VEC4"
		},
		{
			"bufferView":7,
			"componentType":5126,
			"count":2,
			"type":"VEC3"
		},
		{
			"bufferView":8,
			"componentType":5126,
			"count":21,
			"type":"VEC3"
		},
		{
			"bufferView":9,
			"componentType":5126,
			"count":21,
			"type":"VEC4"
		},
		{
			"bufferView":10,
			"componentType":5126,
			"count":2,
			"type":"VEC3"
		},
		{
			"bufferView":11,
			"componentType":5126,
			"count":21,
			"type":"VEC3"
		},
		{
			"bufferView":12,
			"componentType":5126,
			"count":21,
			"type":"VEC4"
		},
		{
			"bufferView":13,
			"componentType":5126,
			"count":2,
			"type":"VEC3"
		},
		{
			"bufferView":14,
			"componentType":5126,
			"count":21,
			"type":"VEC3"
		},
		{
			"bufferView":15,
			"componentType":5126,
			"count":21,
			"type":"VEC4"
		},
		{
			"bufferView":16,
			"componentType":5126,
			"count":2,
			"type":"VEC3"
		},
		{
			"bufferView":17,
			"componentType":5126,
			"count":21,
			"type":"VEC3"
		},
		{
			"bufferView":18,
			"componentType":5126,
			"count":21,
			"type":"VEC4"
		},
		{
			"bufferView":19,
			"componentType":5126,
			"count":2,
			"type":"VEC3"
		},
		{
			"bufferView":20,
			"componentType":5126,
			"count":2,
			"type":"VEC3"
		},
		{
			"bufferView":21,
			"componentType":5126,
			"count":21,
			"type":"VEC4"
		},
		{
			"bufferView":22,
			"componentType":5126,
			"count":2,
			"type":"VEC3"
		},
		{
			"bufferView":23,
			"componentType":5126,
			"count":2,
			"type":"VEC3"
		},
		{
			"bufferView":24,
			"componentType":5126,
			"count":21,
			"type":"VEC4"
		},
		{
			"bufferView":25,
			"componentType":5126,
			"count":2,
			"type":"VEC3"
		},
		{
			"bufferView":26,
			"componentType":5126,
			"count":2,
			"type":"VEC3"
		},
		{
			"bufferView":27,
			"componentType":5126,
			"count":21,
			"type":"VEC4"
		},
		{
			"bufferView":28,
			"componentType":5126,
			"count":2,
			"type":"VEC3"
		},
		{
			"bufferView":29,
			"componentType":5126,
			"count":2,
			"type":"VEC3"
		},
		{
			"bufferView":30,
			"componentType":5126,
			"count":21,
			"type":"VEC4"
		},
		{
			"bufferView":31,
			"componentType":5126,
			"count":2,
			"type":"VEC3"
		},
		{
			"bufferView":32,
			"componentType":5126,
			"count":2,
			"type":"VEC3"
		},
		{
			"bufferView":33,
			"componentType":5126,
			"count":21,
			"type":"VEC4"
		},
		{
			"bufferView":34,
			"componentType":5126,
			"count":2,
			"type":"VEC3"
		},
		{
			"bufferView":35,
			"componentType":5126,
			"count":2,
			"type":"VEC3"
		},
		{
			"bufferView":36,
			"componentType":5126,
			"count":21,
			"type":"VEC4"
		},
		{
			"bufferView":37,
			"componentType":5126,
			"count":2,
			"type":"VEC3"
		},
		{
			"bufferView":38,
			"componentType":5126,
			"count":2,
			"type":"VEC3"
		},
		{
			"bufferView":39,
			"componentType":5126,
			"count":21,
			"type":"VEC4"
		},
		{
			"bufferView":40,
			"componentType":5126,
			"count":2,
			"type":"VEC3"
		},
		{
			"bufferView":41,
			"componentType":5126,
			"count":2,
			"type":"VEC3"
		},
		{
			"bufferView":42,
			"componentType":5126,
			"count":21,
			"type":"VEC4"
		},
		{
			"bufferView":43,
			"componentType":5126,
			"count":2,
			"type":"VEC3"
		},
		{
			"bufferView":44,
			"componentType":5126,
			"count":2,
			"type":"VEC3"
		},
		{
			"bufferView":45,
			"componentType":5126,
			"count":21,
			"type":"VEC4"
		},
		{
			"bufferView":46,
			"componentType":5126,
			"count":2,
			"type":"VEC3"
		},
		{
			"bufferView":47,
			"componentType":5126,
			"count":2,
			"type":"VEC3"
		},
		{
			"bufferView":48,
			"componentType":5126,
			"count":21,
			"type":"VEC4"
		},
		{
			"bufferView":49,
			"componentType":5126,
			"count":2,
			"type":"VEC3"
		},
		{
			"bufferView":50,
			"componentType":5126,
			"count":2,
			"type":"VEC3"
		},
		{
			"bufferView":51,
			"componentType":5126,
			"count":21,
			"type":"VEC4"
		},
		{
			"bufferView":52,
			"componentType":5126,
			"count":2,
			"type":"VEC3"
		},
		{
			"bufferView":53,
			"componentType":5126,
			"count":2,
			"type":"VEC3"
		},
		{
			"bufferView":54,
			"componentType":5126,
			"count":21,
			"type":"VEC4"
		},
		{
			"bufferView":55,
			"componentType":5126,
			"count":2,
			"type":"VEC3"
		},
		{
			"bufferView":56,
			"componentType":5126,
			"count":2,
			"type":"VEC3"
		},
		{
			"bufferView":57,
			"componentType":5126,
			"count":21,
			"type":"VEC4"
		},
		{
			"bufferView":58,
			"componentType":5126,
			"count":2,
			"type":"VEC3"
		},
		{
			"bufferView":59,
			"componentType":5126,
			"count":2,
			"type":"VEC3"
		},
		{
			"bufferView":60,
			"componentType":5126,
			"count":21,
			"type":"VEC4"
		},
		{
			"bufferView":61,
			"componentType":5126,
			"count":2,
			"type":"VEC3"
		},
		{
			"bufferView":62,
			"componentType":5126,
			"count":2,
			"type":"VEC3"
		},
		{
			"bufferView":63,
			"componentType":5126,
			"count":21,
			"type":"VEC4"
		},
		{
			"bufferView":64,
			"componentType":5126,
			"count":2,
			"type":"VEC3"
		},
		{
			"bufferView":65,
			"componentType":5126,
			"count":2,
			"type":"VEC3"
		},
		{
			"bufferView":66,
			"componentType":5126,
			"count":21,
			"type":"VEC4"
		},
		{
			"bufferView":67,
			"componentType":5126,
			"count":2,
			"type":"VEC3"
		},
		{
			"bufferView":68,
			"componentType":5126,
			"count":2,
			"type":"VEC3"
		},
		{
			"bufferView":69,
			"componentType":5126,
			"count":21,
			"type":"VEC4"
		},
		{
			"bufferView":70,
			"componentType":5126,
			"count":2,
			"type":"VEC3"
		},
		{
			"bufferView":71,
			"componentType":5126,
			"count":21,
			"type":"VEC3"
		},
		{
			"bufferView":72,
			"componentType":5126,
			"count":21,
			"type":"VEC4"
		},
		{
			"bufferView":73,
			"componentType":5126,
			"count":2,
			"type":"VEC3"
		},
		{
			"bufferView":74,
			"componentType":5126,
			"count":21,
			"type":"VEC3"
		},
		{
			"bufferView":75,
			"componentType":5126,
			"count":21,
			"type":"VEC4"
		},
		{
			"bufferView":76,
			"componentType":5126,
			"count":2,
			"type":"VEC3"
		},
		{
			"bufferView":77,
			"componentType":5126,
			"count":21,
			"type":"VEC3"
		},
		{
			"bufferView":78,
			"componentType":5126,
			"count":2,
			"type":"VEC4"
		},
		{
			"bufferView":79,
			"componentType":5126,
			"count":2,
			"type":"VEC3"
		},
		{
			"bufferView":80,
			"componentType":5126,
			"count":2,
			"type":"VEC3"
		},
		{
			"bufferView":81,
			"componentType":5126,
			"count":2,
			"type":"VEC4"
		},
		{
			"bufferView":82,
			"componentType":5126,
			"count":2,
			"type":"VEC3"
		},
		{
			"bufferView":83,
			"componentType":5126,
			"count":21,
			"type":"VEC3"
		},
		{
			"bufferView":84,
			"componentType":5126,
			"count":21,
			"type":"VEC4"
		},
		{
			"bufferView":85,
			"componentType":5126,
			"count":2,
			"type":"VEC3"
		},
		{
			"bufferView":86,
			"componentType":5126,
			"count":21,
			"type":"VEC3"
		},
		{
			"bufferView":87,
			"componentType":5126,
			"count":21,
			"type":"VEC4"
		},
		{
			"bufferView":88,
			"componentType":5126,
			"count":2,
			"type":"VEC3"
		},
		{
			"bufferView":89,
			"componentType":5126,
			"count":2,
			"type":"VEC3"
		},
		{
			"bufferView":90,
			"componentType":5126,
			"count":21,
			"type":"VEC4"
		},
		{
			"bufferView":91,
			"componentType":5126,
			"count":2,
			"type":"VEC3"
		},
		{
			"bufferView":92,
			"componentType":5126,
			"count":2,
			"type":"VEC3"
		},
		{
			"bufferView":93,
			"componentType":5126,
			"count":21,
			"type":"VEC4"
		},
		{
			"bufferView":94,
			"componentType":5126,
			"count":2,
			"type":"VEC3"
		},
		{
			"bufferView":95,
			"componentType":5126,
			"count":2,
			"type":"VEC3"
		},
		{
			"bufferView":96,
			"componentType":5126,
			"count":2,
			"type":"VEC4"
		},
		{
			"bufferView":97,
			"componentType":5126,
			"count":2,
			"type":"VEC3"
		},
		{
			"bufferView":98,
			"componentType":5126,
			"count":2,
			"type":"VEC3"
		},
		{
			"bufferView":99,
			"componentType":5126,
			"count":2,
			"type":"VEC4"
		},
		{
			"bufferView":100,
			"componentType":5126,
			"count":2,
			"type":"VEC3"
		},
		{
			"bufferView":101,
			"componentType":5126,
			"count":2,
			"type":"VEC3"
		},
		{
			"bufferView":102,
			"componentType":5126,
			"count":2,
			"type":"VEC4"
		},
		{
			"bufferView":103,
			"componentType":5126,
			"count":2,
			"type":"VEC3"
		},
		{
			"bufferView":104,
			"componentType":5126,
			"count":2,
			"type":"VEC3"
		},
		{
			"bufferView":105,
			"componentType":5126,
			"count":2,
			"type":"VEC4"
		},
		{
			"bufferView":106,
			"componentType":5126,
			"count":2,
			"type":"VEC3"
		},
		{
			"bufferView":107,
			"componentType":5126,
			"count":2,
			"type":"VEC3"
		},
		{
			"bufferView":108,
			"componentType":5126,
			"count":2,
			"type":"VEC4"
		},
		{
			"bufferView":109,
			"componentType":5126,
			"count":2,
			"type":"VEC3"
		},
		{
			"bufferView":110,
			"componentType":5126,
			"count":2,
			"type":"VEC3"
		},
		{
			"bufferView":111,
			"componentType":5126,
			"count":2,
			"type":"VEC4"
		},
		{
			"bufferView":112,
			"componentType":5126,
			"count":2,
			"type":"VEC3"
		},
		{
			"bufferView":113,
			"componentType":5126,
			"count":2,
			"type":"VEC3"
		},
		{
			"bufferView":114,
			"componentType":5126,
			"count":2,
			"type":"VEC4"
		},
		{
			"bufferView":115,
			"componentType":5126,
			"count":2,
			"type":"VEC3"
		},
		{
			"bufferView":116,
			"componentType":5126,
			"count":2,
			"type":"VEC3"
		},
		{
			"bufferView":117,
			"componentType":5126,
			"count":2,
			"type":"VEC4"
		},
		{
			"bufferView":118,
			"componentType":5126,
			"count":2,
			"type":"VEC3"
		},
		{
			"bufferView":119,
			"componentType":5126,
			"count":2,
			"type":"VEC3"
		},
		{
			"bufferView":120,
			"componentType":5126,
			"count":2,
			"type":"VEC4"
		},
		{
			"bufferView":121,
			"componentType":5126,
			"count":2,
			"type":"VEC3"
		},
		{
			"bufferView":122,
			"componentType":5126,
			"count":2,
			"type":"VEC3"
		},
		{
			"bufferView":123,
			"componentType":5126,
			"count":2,
			"type":"VEC4"
		},
		{
			"bufferView":124,
			"componentType":5126,
			"count":2,
			"type":"VEC3"
		},
		{
			"bufferView":125,
			"componentType":5126,
			"count":2,
			"type":"VEC3"
		},
		{
			"bufferView":126,
			"componentType":5126,
			"count":2,
			"type":"VEC4"
		},
		{
			"bufferView":127,
			"componentType":5126,
			"count":2,
			"type":"VEC3"
		},
		{
			"bufferView":128,
			"componentType":5126,
			"count":2,
			"type":"VEC3"
		},
		{
			"bufferView":129,
			"componentType":5126,
			"count":2,
			"type":"VEC4"
		},
		{
			"bufferView":130,
			"componentType":5126,
			"count":2,
			"type":"VEC3"
		},
		{
			"bufferView":131,
			"componentType":5126,
			"count":2,
			"type":"VEC3"
		},
		{
			"bufferView":132,
			"componentType":5126,
			"count":2,
			"type":"VEC4"
		},
		{
			"bufferView":133,
			"componentType":5126,
			"count":2,
			"type":"VEC3"
		},
		{
			"bufferView":134,
			"componentType":5126,
			"count":2,
			"type":"VEC3"
		},
		{
			"bufferView":135,
			"componentType":5126,
			"count":2,
			"type":"VEC4"
		},
		{
			"bufferView":136,
			"componentType":5126,
			"count":2,
			"type":"VEC3"
		},
		{
			"bufferView":137,
			"componentType":5126,
			"count":2,
			"type":"VEC3"
		},
		{
			"bufferView":138,
			"componentType":5126,
			"count":2,
			"type":"VEC4"
		},
		{
			"bufferView":139,
			"componentType":5126,
			"count":2,
			"type":"VEC3"
		},
		{
			"bufferView":140,
			"componentType":5126,
			"count":21,
			"type":"VEC3"
		},
		{
			"bufferView":141,
			"componentType":5126,
			"count":2,
			"type":"VEC4"
		},
		{
			"bufferView":142,
			"componentType":5126,
			"count":2,
			"type":"VEC3"
		},
		{
			"bufferView":143,
			"componentType":5126,
			"count":21,
			"type":"VEC3"
		},
		{
			"bufferView":144,
			"componentType":5126,
			"count":21,
			"type":"VEC4"
		},
		{
			"bufferView":145,
			"componentType":5126,
			"count":2,
			"type":"VEC3"
		},
		{
			"bufferView":146,
			"componentType":5126,
			"count":2,
			"type":"VEC3"
		},
		{
			"bufferView":147,
			"componentType":5126,
			"count":21,
			"type":"VEC4"
		},
		{
			"bufferView":148,
			"componentType":5126,
			"count":2,
			"type":"VEC3"
		},
		{
			"bufferView":149,
			"componentType":5126,
			"count":2,
			"type":"VEC3"
		},
		{
			"bufferView":150,
			"componentType":5126,
			"count":21,
			"type":"VEC4"
		},
		{
			"bufferView":151,
			"componentType":5126,
			"count":2,
			"type":"VEC3"
		},
		{
			"bufferView":152,
			"componentType":5126,
			"count":21,
			"type":"VEC3"
		},
		{
			"bufferView":153,
			"componentType":5126,
			"count":21,
			"type":"VEC4"
		},
		{
			"bufferView":154,
			"componentType":5126,
			"count":2,
			"type":"VEC3"
		},
		{
			"bufferView":155,
			"componentType":5126,
			"count":21,
			"type":"VEC3"
		},
		{
			"bufferView":156,
			"componentType":5126,
			"count":21,
			"type":"VEC4"
		},
		{
			"bufferView":157,
			"componentType":5126,
			"count":2,
			"type":"VEC3"
		},
		{
			"bufferView":158,
			"componentType":5126,
			"count":2,
			"type":"VEC3"
		},
		{
			"bufferView":159,
			"componentType":5126,
			"count":21,
			"type":"VEC4"
		},
		{
			"bufferView":160,
			"componentType":5126,
			"count":2,
			"type":"VEC3"
		},
		{
			"bufferView":161,
			"componentType":5126,
			"count":2,
			"type":"VEC3"
		},
		{
			"bufferView":162,
			"componentType":5126,
			"count":21,
			"type":"VEC4"
		},
		{
			"bufferView":163,
			"componentType":5126,
			"count":2,
			"type":"VEC3"
		},
		{
			"bufferView":164,
			"componentType":5126,
			"count":21,
			"type":"VEC3"
		},
		{
			"bufferView":165,
			"componentType":5126,
			"count":21,
			"type":"VEC4"
		},
		{
			"bufferView":166,
			"componentType":5126,
			"count":2,
			"type":"VEC3"
		},
		{
			"bufferView":167,
			"componentType":5126,
			"count":21,
			"type":"VEC3"
		},
		{
			"bufferView":168,
			"componentType":5126,
			"count":21,
			"type":"VEC4"
		},
		{
			"bufferView":169,
			"componentType":5126,
			"count":2,
			"type":"VEC3"
		},
		{
			"bufferView":170,
			"componentType":5126,
			"count":2,
			"type":"VEC3"
		},
		{
			"bufferView":171,
			"componentType":5126,
			"count":2,
			"type":"VEC4"
		},
		{
			"bufferView":172,
			"componentType":5126,
			"count":2,
			"type":"VEC3"
		},
		{
			"bufferView":173,
			"componentType":5126,
			"count":56,
			"type":"MAT4"
		}
	],
	"bufferViews":[
		{
			"buffer":0,
			"byteLength":8,
			"byteOffset":0
		},
		{
			"buffer":0,
			"byteLength":24,
			"byteOffset":8
		},
		{
			"buffer":0,
			"byteLength":32,
			"byteOffset":32
		},
		{
			"buffer":0,
			"byteLength":24,
			"byteOffset":64
		},
		{
			"buffer":0,
			"byteLength":84,
			"byteOffset":88
		},
		{
			"buffer":0,
			"byteLength":252,
			"byteOffset":172
		},
		{
			"buffer":0,
			"byteLength":336,
			"byteOffset":424
		},
		{
			"buffer":0,
			"byteLength":24,
			"byteOffset":760
		},
		{
			"buffer":0,
			"byteLength":252,
			"byteOffset":784
		},
		{
			"buffer":0,
			"byteLength":336,
			"byteOffset":1036
		},
		{
			"buffer":0,
			"byteLength":24,
			"byteOffset":1372
		},
		{
			"buffer":0,
			"byteLength":252,
			"byteOffset":1396
		},
		{
			"buffer":0,
			"byteLength":336,
			"byteOffset":1648
		},
		{
			"buffer":0,
			"byteLength":24,
			"byteOffset":1984
		},
		{
			"buffer":0,
			"byteLength":252,
			"byteOffset":2008
		},
		{
			"buffer":0,
			"byteLength":336,
			"byteOffset":2260
		},
		{
			"buffer":0,
			"byteLength":24,
			"byteOffset":2596
		},
		{
			"buffer":0,
			"byteLength":252,
			"byteOffset":2620
		},
		{
			"buffer":0,
			"byteLength":336,
			"byteOffset":2872
		},
		{
			"buffer":0,
			"byteLength":24,
			"byteOffset":3208
		},
		{
			"buffer":0,
			"byteLength":24,
			"byteOffset":3232
		},
		{
			"buffer":0,
			"byteLength":336,
			"byteOffset":3256
		},
		{
			"buffer":0,
			"byteLength":24,
			"byteOffset":3592
		},
		{
			"buffer":0,
			"byteLength":24,
			"byteOffset":3616
		},
		{
			"buffer":0,
			"byteLength":336,
			"byteOffset":3640
		},
		{
			"buffer":0,
			"byteLength":24,
			"byteOffset":3976
		},
		{
			"buffer":0,
			"byteLength":24,
			"byteOffset":4000
		},
		{
			"buffer":0,
			"byteLength":336,
			"byteOffset":4024
		},
		{
			"buffer":0,
			"byteLength":24,
			"byteOffset":4360
		},
		{
			"buffer":0,
			"byteLength":24,
			"byteOffset":4384
		},
		{
			"buffer":0,
			"byteLength":336,
			"byteOffset":4408
		},
		{
			"buffer":0,
			"byteLength":24,
			"byteOffset":4744
		},
		{
			"buffer":0,
			"byteLength":24,
			"byteOffset":4768
		},
		{
			"buffer":0,
			"byteLength":336,
			"byteOffset":4792
		},
		{
			"buffer":0,
			"byteLength":24,
			"byteOffset":5128
		},
		{
			"buffer":0,
			"byteLength":24,
			"byteOffset":5152
		},
		{
			"buffer":0,
			"byteLength":336,
			"byteOffset":5176
		},
		{
			"buffer":0,
			"byteLength":24,
			"byteOffset":5512
		},
		{
			"buffer":0,
			"byteLength":24,
			"byteOffset":5536
		},
		{
			"buffer":0,
			"byteLength":336,
			"byteOffset":5560
		},
		{
			"buffer":0,
			"byteLength":24,
			"byteOffset":5896
		},
		{
			"buffer":0,
			"byteLength":24,
			"byteOffset":5920
		},
		{
			"buffer":0,
			"byteLength":336,
			"byteOffset":5944
		},
		{
			"buffer":0,
			"byteLength":24,
			"byteOffset":6280
		},
		{
			"buffer":0,
			"byteLength":24,
			"byteOffset":6304
		},
		{
			"buffer":0,
			"byteLength":336,
			"byteOffset":6328
		},
		{
			"buffer":0,
			"byteLength":24,
			"byteOffset":6664
		},
		{
			"buffer":0,
			"byteLength":24,
			"byteOffset":6688
		},
		{
			"buffer":0,
			"byteLength":336,
			"byteOffset":6712
		},
		{
			"buffer":0,
			"byteLength":24,
			"byteOffset":7048
		},
		{
			"buffer":0,
			"byteLength":24,
			"byteOffset":7072
		},
		{
			"buffer":0,
			"byteLength":336,
			"byteOffset":7096
		},
		{
			"buffer":0,
			"byteLength":24,
			"byteOffset":7432
		},
		{
			"buffer":0,
			"byteLength":24,
			"byteOffset":7456
		},
		{
			"buffer":0,
			"byteLength":336,
			"byteOffset":7480
		},
		{
			"buffer":0,
			"byteLength":24,
			"byteOffset":7816
		},
		{
			"buffer":0,
			"byteLength":24,
			"byteOffset":7840
		},
		{
			"buffer":0,
			"byteLength":336,
			"byteOffset":7864
		},
		{
			"buffer":0,
			"byteLength":24,
			"byteOffset":8200
		},
		{
			"buffer":0,
			"byteLength":24,
			"byteOffset":8224
		},
		{
			"buffer":0,
			"byteLength":336,
			"byteOffset":8248
		},
		{
			"buffer":0,
			"byteLength":24,
			"byteOffset":8584
		},
		{
			"buffer":0,
			"byteLength":24,
			"byteOffset":8608
		},
		{
			"buffer":0,
			"byteLength":336,
			"byteOffset":8632
		},
		{
			"buffer":0,
			"byteLength":24,
			"byteOffset":8968
		},
		{
			"buffer":0,
			"byteLength":24,
			"byteOffset":8992
		},
		{
			"buffer":0,
			"byteLength":336,
			"byteOffset":9016
		},
		{
			"buffer":0,
			"byteLength":24,
			"byteOffset":9352
		},
		{
			"buffer":0,
			"byteLength":24,
			"byteOffset":9376
		},
		{
			"buffer":0,
			"byteLength":336,
			"byteOffset":9400
		},
		{
			"buffer":0,
			"byteLength":24,
			"byteOffset":9736
		},
		{
			"buffer":0,
			"byteLength":252,
			"byteOffset":9760
		},
		{
			"buffer":0,
			"byteLength":336,
			"byteOffset":10012
		},
		{
			"buffer":0,
			"byteLength":24,
			"byteOffset":10348
		},
		{
			"buffer":0,
			"byteLength":252,
			"byteOffset":10372
		},
		{
			"buffer":0,
			"byteLength":336,
			"byteOffset":10624
		},
		{
			"buffer":0,
			"byteLength":24,
			"byteOffset":10960
		},
		{
			"buffer":0,
			"byteLength":252,
			"byteOffset":10984
		},
		{
			"buffer":0,
			"byteLength":32,
			"byteOffset":11236
		},
		{
			"buffer":0,
			"byteLength":24,
			"byteOffset":11268
		},
		{
			"buffer":0,
			"byteLength":24,
			"byteOffset":11292
		},
		{
			"buffer":0,
			"byteLength":32,
			"byteOffset":11316
		},
		{
			"buffer":0,
			"byteLength":24,
			"byteOffset":11348
		},
		{
			"buffer":0,
			"byteLength":252,
			"byteOffset":11372
		},
		{
			"buffer":0,
			"byteLength":336,
			"byteOffset":11624
		},
		{
			"buffer":0,
			"byteLength":24,
			"byteOffset":11960
		},
		{
			"buffer":0,
			"byteLength":252,
			"byteOffset":11984
		},
		{
			"buffer":0,
			"byteLength":336,
			"byteOffset":12236
		},
		{
			"buffer":0,
			"byteLength":24,
			"byteOffset":12572
		},
		{
			"buffer":0,
			"byteLength":24,
			"byteOffset":12596
		},
		{
			"buffer":0,
			"byteLength":336,
			"byteOffset":12620
		},
		{
			"buffer":0,
			"byteLength":24,
			"byteOffset":12956
		},
		{
			"buffer":0,
			"byteLength":24,
			"byteOffset":12980
		},
		{
			"buffer":0,
			"byteLength":336,
			"byteOffset":13004
		},
		{
			"buffer":0,
			"byteLength":24,
			"byteOffset":13340
		},
		{
			"buffer":0,
			"byteLength":24,
			"byteOffset":13364
		},
		{
			"buffer":0,
			"byteLength":32,
			"byteOffset":13388
		},
		{
			"buffer":0,
			"byteLength":24,
			"byteOffset":13420
		},
		{
			"buffer":0,
			"byteLength":24,
			"byteOffset":13444
		},
		{
			"buffer":0,
			"byteLength":32,
			"byteOffset":13468
		},
		{
			"buffer":0,
			"byteLength":24,
			"byteOffset":13500
		},
		{
			"buffer":0,
			"byteLength":24,
			"byteOffset":13524
		},
		{
			"buffer":0,
			"byteLength":32,
			"byteOffset":13548
		},
		{
			"buffer":0,
			"byteLength":24,
			"byteOffset":13580
		},
		{
			"buffer":0,
			"byteLength":24,
			"byteOffset":13604
		},
		{
			"buffer":0,
			"byteLength":32,
			"byteOffset":13628
		},
		{
			"buffer":0,
			"byteLength":24,
			"byteOffset":13660
		},
		{
			"buffer":0,
			"byteLength":24,
			"byteOffset":13684
		},
		{
			"buffer":0,
			"byteLength":32,
			"byteOffset":13708
		},
		{
			"buffer":0,
			"byteLength":24,
			"byteOffset":13740
		},
		{
			"buffer":0,
			"byteLength":24,
			"byteOffset":13764
		},
		{
			"buffer":0,
			"byteLength":32,
			"byteOffset":13788
		},
		{
			"buffer":0,
			"byteLength":24,
			"byteOffset":13820
		},
		{
			"buffer":0,
			"byteLength":24,
			"byteOffset":13844
		},
		{
			"buffer":0,
			"byteLength":32,
			"byteOffset":13868
		},
		{
			"buffer":0,
			"byteLength":24,
			"byteOffset":13900
		},
		{
			"buffer":0,
			"byteLength":24,
			"byteOffset":13924
		},
		{
			"buffer":0,
			"byteLength":32,
			"byteOffset":13948
		},
		{
			"buffer":0,
			"byteLength":24,
			"byteOffset":13980
		},
		{
			"buffer":0,
			"byteLength":24,
			"byteOffset":14004
		},
		{
			"buffer":0,
			"byteLength":32,
			"byteOffset":14028
		},
		{
			"buffer":0,
			"byteLength":24,
			"byteOffset":14060
		},
		{
			"buffer":0,
			"byteLength":24,
			"byteOffset":14084
		},
		{
			"buffer":0,
			"byteLength":32,
			"byteOffset":14108
		},
		{
			"buffer":0,
			"byteLength":24,
			"byteOffset":14140
		},
		{
			"buffer":0,
			"byteLength":24,
			"byteOffset":14164
		},
		{
			"buffer":0,
			"byteLength":32,
			"byteOffset":14188
		},
		{
			"buffer":0,
			"byteLength":24,
			"byteOffset":14220
		},
		{
			"buffer":0,
			"byteLength":24,
			"byteOffset":14244
		},
		{
			"buffer":0,
			"byteLength":32,
			"byteOffset":14268
		},
		{
			"buffer":0,
			"byteLength":24,
			"byteOffset":14300
		},
		{
			"buffer":0,
			"byteLength":24,
			"byteOffset":14324
		},
		{
			"buffer":0,
			"byteLength":32,
			"byteOffset":14348
		},
		{
			"buffer":0,
			"byteLength":24,
			"byteOffset":14380
		},
		{
			"buffer":0,
			"byteLength":24,
			"byteOffset":14404
		},
		{
			"buffer":0,
			"byteLength":32,
			"byteOffset":14428
		},
		{
			"buffer":0,
			"byteLength":24,
			"byteOffset":14460
		},
		{
			"buffer":0,
			"byteLength":24,
			"byteOffset":14484
		},
		{
			"buffer":0,
			"byteLength":32,
			"byteOffset":14508
		},
		{
			"buffer":0,
			"byteLength":24,
			"byteOffset":14540
		},
		{
			"buffer":0,
			"byteLength":252,
			"byteOffset":14564
		},
		{
			"buffer":0,
			"byteLength":32,
			"byteOffset":14816
		},
		{
			"buffer":0,
			"byteLength":24,
			"byteOffset":14848
		},
		{
			"buffer":0,
			"byteLength":252,
			"byteOffset":14872
		},
		{
			"buffer":0,
			"byteLength":336,
			"byteOffset":15124
		},
		{
			"buffer":0,
			"byteLength":24,
			"byteOffset":15460
		},
		{
			"buffer":0,
			"byteLength":24,
			"byteOffset":15484
		},
		{
			"buffer":0,
			"byteLength":336,
			"byteOffset":15508
		},
		{
			"buffer":0,
			"byteLength":24,
			"byteOffset":15844
		},
		{
			"buffer":0,
			"byteLength":24,
			"byteOffset":15868
		},
		{
			"buffer":0,
			"byteLength":336,
			"byteOffset":15892
		},
		{
			"buffer":0,
			"byteLength":24,
			"byteOffset":16228
		},
		{
			"buffer":0,
			"byteLength":252,
			"byteOffset":16252
		},
		{
			"buffer":0,
			"byteLength":336,
			"byteOffset":16504
		},
		{
			"buffer":0,
			"byteLength":24,
			"byteOffset":16840
		},
		{
			"buffer":0,
			"byteLength":252,
			"byteOffset":16864
		},
		{
			"buffer":0,
			"byteLength":336,
			"byteOffset":17116
		},
		{
			"buffer":0,
			"byteLength":24,
			"byteOffset":17452
		},
		{
			"buffer":0,
			"byteLength":24,
			"byteOffset":17476
		},
		{
			"buffer":0,
			"byteLength":336,
			"byteOffset":17500
		},
		{
			"buffer":0,
			"byteLength":24,
			"byteOffset":17836
		},
		{
			"buffer":0,
			"byteLength":24,
			"byteOffset":17860
		},
		{
			"buffer":0,
			"byteLength":336,
			"byteOffset":17884
		},
		{
			"buffer":0,
			"byteLength":24,
			"byteOffset":18220
		},
		{
			"buffer":0,
			"byteLength":252,
			"byteOffset":18244
		},
		{
			"buffer":0,
			"byteLength":336,
			"byteOffset":18496
		},
		{
			"buffer":0,
			"byteLength":24,
			"byteOffset":18832
		},
		{
			"buffer":0,
			"byteLength":252,
			"byteOffset":18856
		},
		{
			"buffer":0,
			"byteLength":336,
			"byteOffset":19108
		},
		{
			"buffer":0,
			"byteLength":24,
			"byteOffset":19444
		},
		{
			"buffer":0,
			"byteLength":24,
			"byteOffset":19468
		},
		{
			"buffer":0,
			"byteLength":32,
			"byteOffset":19492
		},
		{
			"buffer":0,
			"byteLength":24,
			"byteOffset":19524
		},
		{
			"buffer":0,
			"byteLength":3584,
			"byteOffset":19548
		}
	],
	"buffers":[
		{
			"byteLength":23132,
			"uri":"BowAttackFull.bin"
		}
	]
}
